<?xml version="1.0" encoding="iso-8859-1"?>
<!-- Generator: Adobe Illustrator 16.0.0, SVG Export Plug-In . SVG Version: 6.00 Build 0)  -->
<!DOCTYPE svg PUBLIC "-//W3C//DTD SVG 1.1//EN" "http://www.w3.org/Graphics/SVG/1.1/DTD/svg11.dtd">
<svg xmlns="http://www.w3.org/2000/svg" xmlns:xlink="http://www.w3.org/1999/xlink" version="1.1" id="Capa_1" x="0px" y="0px" width="512px" height="512px" viewBox="0 0 565.355 565.354" style="enable-background:new 0 0 565.355 565.354;" xml:space="preserve">
<g>
	<path d="M379.986,565.354c28.783,0,52.191-23.409,52.191-52.192V52.192C432.177,23.409,408.769,0,379.986,0H185.37   c-28.783,0-52.192,23.409-52.192,52.192v460.97c0,28.783,23.409,52.192,52.192,52.192H379.986z M282.678,529.771   c-14.765,0-26.728-11.972-26.728-26.727c0-14.765,11.973-26.728,26.728-26.728c14.755,0,26.726,11.963,26.726,26.728   C309.406,517.8,297.433,529.771,282.678,529.771z M167.125,442.284V61.898c0-3.959,3.213-7.172,7.172-7.172H391.05   c3.957,0,7.172,3.213,7.172,7.172v380.386c0,3.959-3.215,7.172-7.172,7.172H174.296   C170.347,449.456,167.125,446.234,167.125,442.284z" fill="#573f8e"/>
	<rect x="273.574" y="493.922" width="18.207" height="18.227" fill="#573f8e"/>
</g>
<g>
</g>
<g>
</g>
<g>
</g>
<g>
</g>
<g>
</g>
<g>
</g>
<g>
</g>
<g>
</g>
<g>
</g>
<g>
</g>
<g>
</g>
<g>
</g>
<g>
</g>
<g>
</g>
<g>
</g>
</svg>
