<?xml version="1.0" encoding="UTF-8"?>
<svg width="76px" height="73px" viewBox="0 0 76 73" version="1.1" xmlns="http://www.w3.org/2000/svg" xmlns:xlink="http://www.w3.org/1999/xlink">
    <!-- Generator: Sketch 42 (36781) - http://www.bohemiancoding.com/sketch -->
    <title>Artboard 29</title>
    <desc>Created with Sketch.</desc>
    <defs></defs>
    <g id="Page-1" stroke="none" stroke-width="1" fill="none" fill-rule="evenodd">
        <g id="Desktop-HD" transform="translate(-682.000000, -4804.000000)">
            <g id="Footer" transform="translate(0.000000, 4763.000000)">
                <g id="Artboard-29" transform="translate(683.000000, 42.000000)">
                    <g id="Layer_1">
                        <path d="M46.434593,71.3595092 L39.3837209,71.3595092 C38.4204336,71.3595092 37.6395349,70.568454 37.6395349,69.592638 L37.6395349,56.4206135 C37.6395349,55.6228839 38.2779196,54.9761963 39.065407,54.9761963 C39.8528944,54.9761963 40.4912791,55.6228839 40.4912791,56.4206135 L40.4912791,68.7887117 L46.4127907,68.7887117 C47.091452,68.7885604 47.6456461,69.3381847 47.6598837,70.0255215 C47.674021,70.3675529 47.552425,70.7010866 47.3222249,70.9517081 C47.0920248,71.2023295 46.7723752,71.3491848 46.434593,71.3595092 L46.434593,71.3595092 Z" id="Shape" fill="#FFFFFF"></path>
                        <path d="M53.869186,71.5052761 C53.0957502,71.4931877 52.4757182,70.8532778 52.4781977,70.0696933 L52.4781977,56.4206135 C52.4781977,55.6228839 53.1165824,54.9761963 53.9040698,54.9761963 C54.6915572,54.9761963 55.3299419,55.6228839 55.3299419,56.4206135 L55.3299419,70.0741104 C55.3132487,70.8764188 54.6613093,71.515152 53.869186,71.5052761 L53.869186,71.5052761 Z" id="Shape" fill="#FFFFFF"></path>
                        <path d="M68.3284884,71.677546 C63.7020349,71.677546 59.934593,68.351411 59.934593,63.284908 C59.934593,58.2184049 63.6976744,54.8922699 68.3284884,54.8922699 C70.4359078,54.8276278 72.472858,55.6645488 73.940407,57.1980368 C74.1746451,57.4465912 74.3044111,57.777601 74.3023256,58.121227 C74.2799531,58.6637406 73.9402797,59.1404309 73.4390199,59.3327716 C72.9377602,59.5251122 72.3715681,59.3960155 72,59.0046626 C71.0258062,58.0198667 69.7090749,57.4615818 68.3328488,57.449816 C65.193314,57.449816 62.8648256,59.8792638 62.8648256,63.2539877 C62.8648256,66.6287117 65.1889535,69.0581595 68.3328488,69.0581595 C69.7099264,69.0517403 71.0384348,68.5419725 72.0741279,67.6225767 L72.0741279,65.1710429 L68.4593023,65.1710429 C68.1222626,65.1642915 67.8022775,65.0196065 67.5722642,64.7699584 C67.3422509,64.5203103 67.2218045,64.186967 67.2383721,63.8458896 C67.2431237,63.1648221 67.7869792,62.6138931 68.4593023,62.6090798 L73.2078488,62.6090798 C74.1711362,62.6090798 74.9520349,63.4001349 74.9520349,64.3759509 L74.9520349,67.3133742 C74.9258721,70.0961963 71.3982558,71.677546 68.3284884,71.677546 L68.3284884,71.677546 Z" id="Shape" fill="#FFFFFF"></path>
                        <path d="M50.6380814,31.0483436 L50.6380814,31.0483436 C50.6380814,30.573853 50.2583694,30.1892025 49.7899709,30.1892025 C49.3215725,30.1892025 48.9418605,30.573853 48.9418605,31.0483436 L48.9418605,31.0483436 C48.730976,41.3026552 40.3908207,49.4628989 30.2669464,49.3204075 C20.1430721,49.1779161 12.0299399,40.7860957 12.1003726,30.5298073 C12.1708052,20.2735188 20.3984044,11.9968526 30.5232558,11.9970552 L30.5232558,11.9970552 C30.9657561,11.96481 31.3084909,11.591745 31.3084909,11.1423313 C31.3084909,10.6929175 30.9657561,10.3198526 30.5232558,10.2876074 L30.4665698,10.2876074 C19.4105717,10.3162546 10.4489035,19.3767818 10.3990497,30.5764984 C10.349196,41.7762151 19.2298384,50.9182439 30.2851319,51.0478929 C41.3404253,51.1775419 50.4276122,42.2462278 50.6337209,31.0483436 L50.6380814,31.0483436 Z" id="Shape" stroke="#FFFFFF" fill="#FFFFFF"></path>
                        <path d="M60.7194767,29.670184 C60.1870006,12.9361317 46.4782041,-0.257891272 29.9533909,0.0593831851 C13.4285777,0.376657642 0.223170594,14.0874301 0.31704109,30.8299037 C0.410911586,47.5723772 13.7692069,61.1303149 30.2965116,61.2574233 L30.3488372,61.2574233 C30.8172357,61.2574233 31.1969477,60.8727727 31.1969477,60.3982822 C31.1969477,59.9237917 30.8172357,59.5391411 30.3488372,59.5391411 L30.3488372,59.5391411 C14.7362914,59.4497767 2.09906368,46.6556417 2.00175299,30.8400917 C1.9044423,15.0245418 14.3832535,2.07182566 29.9934867,1.78532251 C45.6037198,1.49881936 58.5375152,13.985124 59.005814,29.793865 L59.0363372,29.793865 L59.0363372,29.8601227 C59.0429634,30.1848244 59.2302213,30.4778294 59.519962,30.616857 C59.8097026,30.7558846 60.1521303,30.7170411 60.4043387,30.5165372 C60.656547,30.3160333 60.7751907,29.9883282 60.7107558,29.670184 L60.7194767,29.670184 Z" id="Shape" stroke="#FFFFFF" fill="#FFFFFF"></path>
                        <path d="M30.3488372,5.02674847 C19.1995962,5.02431788 9.37890864,12.4564659 6.21922447,23.2876749 C3.0595403,34.118884 7.31477623,45.7647725 16.6744186,51.9018405 L16.9229651,52.0564417 L16.9229651,52.0564417 C17.0413743,52.1194158 17.172953,52.1527383 17.306686,52.1536196 C17.6684759,52.1549888 17.9910761,51.9231353 18.1093207,51.5767643 C18.2275653,51.2303932 18.1152755,50.8461895 17.8299419,50.6208589 L17.8299419,50.6208589 L17.8037791,50.6208589 L17.7427326,50.5811043 C9.05767343,44.9760805 4.9943294,34.2902747 7.72310751,24.2314362 C10.4518856,14.1725976 19.3352158,7.09094101 29.6281288,6.76908419 C39.9210417,6.44722738 49.218632,12.9603711 52.5546561,22.8295648 C55.8906803,32.6987585 52.4856871,43.6180973 44.1584302,49.755092 L44.1584302,49.755092 C43.7743194,50.0246612 43.6786593,50.5586234 43.9447674,50.9477301 C44.2108756,51.3368367 44.7379822,51.4337409 45.122093,51.1641718 L45.440407,50.9300613 C54.132063,44.3575658 57.6864923,32.8817113 54.2592906,22.457354 C50.8320888,12.0329968 41.1950395,5.00763417 30.3488372,5.02674847 L30.3488372,5.02674847 Z" id="Shape" stroke="#5AAA53" fill="#5AAA53"></path>
                        <path d="M35.4723837,37.7889571 L26.0973837,37.7889571 C25.3555842,37.7578709 24.7743778,37.1318167 24.7892442,36.3798773 C24.7830152,35.9134715 24.9968441,35.4720465 25.3648256,35.1916564 C31.190407,30.7479755 33.5668605,28.5658896 33.5668605,26.3573006 C33.5668605,24.7052761 32.1497093,23.9278528 30.6889535,23.9278528 C29.4259491,23.906264 28.1941199,24.3258538 27.2005814,25.1160736 C26.9674647,25.3007826 26.6810986,25.4031675 26.3851744,25.4076074 C25.6780796,25.386109 25.1159607,24.7990678 25.1162791,24.082454 C25.1106706,23.8464567 25.1711426,23.6136741 25.2906977,23.4110429 C26.2718023,22.1477301 28.622093,21.3482209 30.6148256,21.3482209 C33.7543605,21.3482209 36.4665698,23.115092 36.4665698,26.3528834 C36.4665698,29.3388957 33.806686,31.9892025 29.5377907,35.2446626 L35.4593023,35.2446626 C36.1379636,35.2445113 36.6921577,35.7941356 36.7063953,36.4814724 C36.721014,37.1873119 36.1691148,37.7720711 35.4723837,37.7889571 L35.4723837,37.7889571 Z" id="Shape" fill="#FFFFFF"></path>
                    </g>
                </g>
            </g>
        </g>
    </g>
</svg>