<svg id="Camada_1" data-name="Camada 1" xmlns="http://www.w3.org/2000/svg" viewBox="0 0 504 192"><defs><style>.cls-1{fill:#21a34c;}.cls-2{fill:#fff;}</style></defs><path class="cls-1" d="M186.43,65.57,162,41.14v34l7.45,7.45a36,36,0,1,1-50.9,50.92L93.09,108H144V24L120,0V59.14L102.43,41.57a60,60,0,0,0-84.86,84.86L42,150.85V116.91l-7.45-7.45a36,36,0,1,1,50.9-50.92L110.91,84H60v84l24,24V132.85l17.57,17.58a60,60,0,0,0,84.86-84.86Z"/><path class="cls-2" d="M299.65,101c6.4-6.82,11.28-13.4,14-19a40.69,40.69,0,0,0,4-18,30.62,30.62,0,0,0-11-24,32.27,32.27,0,0,0-13.76-6.83A66,66,0,0,0,280.65,32C268,32.18,253.87,37,244,43.53l7.27,17.56a49.87,49.87,0,0,1,29.51-10.23c17.39,0,24.23,18.78,4.87,38.14S248,128,248,128v20h74V128H274.65Z"/><path class="cls-2" d="M484,68v7.2A31.64,31.64,0,0,0,463,67a41,41,0,0,0,0,82,31.64,31.64,0,0,0,21-8.2V151a21,21,0,0,1-40.41,8l-18.48,7.66A41,41,0,0,0,504,151V68Zm-21,61a21,21,0,1,1,21-21A21,21,0,0,1,463,129Z"/><rect class="cls-2" x="390" y="68" width="20" height="80"/><circle class="cls-2" cx="400" cy="45" r="12"/><path class="cls-2" d="M356,108V36H336v72a40,40,0,0,0,40,40V128A20,20,0,0,1,356,108Z"/></svg>